<?xml version="1.0" encoding="utf-8"?>
<!-- Generator: Adobe Illustrator 16.0.0, SVG Export Plug-In . SVG Version: 6.00 Build 0)  -->
<!DOCTYPE svg PUBLIC "-//W3C//DTD SVG 1.1//EN" "http://www.w3.org/Graphics/SVG/1.1/DTD/svg11.dtd">
<svg version="1.1" id="Laag_1" xmlns="http://www.w3.org/2000/svg" xmlns:xlink="http://www.w3.org/1999/xlink" x="0px" y="0px"
	 width="56px" height="14px" viewBox="0 0 56 14" enable-background="new 0 0 56 14" xml:space="preserve">
<path fill="#1D1D1B" d="M0,0h12.743v9.688H0V0L0,0z M1.267,0.596l5.291,4.621l4.844-4.621H1.267L1.267,0.596z M0.82,1.192v7.601
	l4.248-3.875L0.82,1.192L0.82,1.192z M11.924,1.043l-3.95,3.726l4.099,3.578L11.924,1.043L11.924,1.043z M1.416,9.018l10.135-0.074
	L7.675,5.292c-0.447,0.074-0.67,0.521-1.118,0.745c-0.373-0.148-0.67-0.597-1.043-0.745L1.416,9.018z"/>
<path fill="#1D1D1B" d="M24.3,8.9L24.8,8.6H25L25.2,8.7l2.1,2.399c0.2,0.2-0.3,1.101-0.8,0.4L24.3,8.9L24.3,8.9z M20.7,0.1
	c0,0-0.4,0-0.9,0.3c-0.5,0.3-1.1,0.8-1.1,0.8s0,1.5,0.1,3c0.2,1.6,1.1,4,2.2,5.5c1,1.3,2.2,2.1,3.6,3.2c0.3,0.199,2.1-0.9,2.1-0.9
	l-2.5-2.8c0,0-0.1,0.3-0.5,0.6c-0.3,0.3-0.5-0.1-0.5-0.1s-2.4-4.9-2.6-5.3c-0.2-0.5,0.2-0.5,0.2-0.5h0.8L20.7,0.1L20.7,0.1z M21,0
	h0.5c0.3,0,0.3,0.3,0.3,0.3l0.6,2.8c0,0.1,0.1,0.2,0,0.3c0,0-0.1,0.1-0.1,0.2c-0.2,0.2-0.5,0.3-0.5,0L21,0z"/>
<g>
	<g>
		<path fill="#0A1E75" d="M39.7,9.3H29.3c-0.2,0-0.3,0.2-0.3,0.4v1.6c0,0.2,0.2,0.4,0.3,0.4h10.3c0.2,0,0.301-0.2,0.301-0.4V9.7
			C40,9.5,39.8,9.3,39.7,9.3z M39.7,5.5H29.3c-0.2,0-0.3,0.2-0.3,0.4v1.6c0,0.2,0.2,0.4,0.3,0.4h10.3c0.2,0,0.301-0.2,0.301-0.4V5.9
			C40,5.7,39.8,5.5,39.7,5.5z M39.7,1.7H29.3c-0.2,0-0.3,0.2-0.3,0.4v1.6C29,3.9,29.2,4,29.3,4h10.3C39.8,4,40,3.9,40,3.7V2.1
			C40,1.8,39.8,1.7,39.7,1.7z"/>
	</g>
</g>
<path fill="#0A1E75" d="M54.4,12.2H53.8c0,0-0.6,0-0.6-0.601v-1.5c0-0.199-0.101-0.3-0.3-0.3C52.7,9.8,52.6,9.9,52.6,10.1v2.5
	c0,0.4-1.199,1.301-4,1.301c-2.8,0-4-0.9-4-1.301v-2.5c0-0.199-0.1-0.3-0.3-0.3S44,9.9,44,10.1v1.5c0,0.601-0.6,0.601-0.6,0.601
	H42.8c0,0-0.6,0-0.6-0.601V9.2c0-1.7,1.8-3.2,4.3-3.7c0,0,0.8,0.6,2.2,0.6c1.399,0,2.2-0.6,2.2-0.6C53.2,6,55,7.5,55,9.2v2.5
	C55,12.2,54.4,12.2,54.4,12.2z M48.5,5.3c-1.5,0-2.8-1.2-2.8-2.6c0-1.4,1.2-2.6,2.8-2.6c1.5,0,2.8,1.2,2.8,2.6
	C51.3,4.1,50,5.3,48.5,5.3z"/>
</svg>
