<?xml version="1.0" encoding="utf-8"?>
<!-- Generator: Adobe Illustrator 16.0.0, SVG Export Plug-In . SVG Version: 6.00 Build 0)  -->
<!DOCTYPE svg PUBLIC "-//W3C//DTD SVG 1.1//EN" "http://www.w3.org/Graphics/SVG/1.1/DTD/svg11.dtd">
<svg version="1.1" id="Laag_1" xmlns="http://www.w3.org/2000/svg" xmlns:xlink="http://www.w3.org/1999/xlink" x="0px" y="0px"
	 width="56px" height="14px" viewBox="0 0 56 14" style="enable-background:new 0 0 56 14;" xml:space="preserve">
<style type="text/css">
<![CDATA[
	.st0{fill-rule:evenodd;clip-rule:evenodd;fill:#0A1E75;}
	.st1{fill-rule:evenodd;clip-rule:evenodd;fill:#1D1D1B;}
	.st2{fill:#0A1E75;}
]]>
</style>
<path class="st1" d="M0,0h17.1v13H0V0L0,0z M1.7,0.8L8.8,7l6.5-6.2H1.7L1.7,0.8z M1.1,1.6v10.2l5.7-5.2L1.1,1.6L1.1,1.6z M16,1.4
	l-5.3,5l5.5,4.8L16,1.4L16,1.4z M1.9,12.1L15.5,12l-5.2-4.9C9.7,7.2,9.4,7.8,8.8,8.1C8.3,7.9,7.9,7.3,7.4,7.1L1.9,12.1z"/>
<path class="st1" d="M24.3,8.9l0.5-0.3l0.2,0l0.2,0.1l2.1,2.4c0.2,0.2-0.3,1.1-0.8,0.4L24.3,8.9L24.3,8.9z M20.7,0.1
	c0,0-0.4,0-0.9,0.3c-0.5,0.3-1.1,0.8-1.1,0.8s0,1.5,0.1,3c0.2,1.6,1.1,4,2.2,5.5c1,1.3,2.2,2.1,3.6,3.2c0.3,0.2,2.1-0.9,2.1-0.9
	l-2.5-2.8c0,0-0.1,0.3-0.5,0.6c-0.3,0.3-0.5-0.1-0.5-0.1s-2.4-4.9-2.6-5.3c-0.2-0.5,0.2-0.5,0.2-0.5h0.8L20.7,0.1L20.7,0.1z M21,0
	l0.5,0c0.3,0,0.3,0.3,0.3,0.3l0.6,2.8c0,0.1,0.1,0.2,0,0.3c0,0-0.1,0.1-0.1,0.2c-0.2,0.2-0.5,0.3-0.5,0L21,0z"/>
<g>
	<g>
		<path class="st0" d="M39.7,9.3H29.3c-0.2,0-0.3,0.2-0.3,0.4v1.6c0,0.2,0.2,0.4,0.3,0.4h10.3c0.2,0,0.3-0.2,0.3-0.4V9.7
			C40,9.5,39.8,9.3,39.7,9.3z M39.7,5.5H29.3c-0.2,0-0.3,0.2-0.3,0.4v1.6c0,0.2,0.2,0.4,0.3,0.4h10.3c0.2,0,0.3-0.2,0.3-0.4V5.9
			C40,5.7,39.8,5.5,39.7,5.5z M39.7,1.7H29.3c-0.2,0-0.3,0.2-0.3,0.4v1.6C29,3.9,29.2,4,29.3,4h10.3C39.8,4,40,3.9,40,3.7V2.1
			C40,1.8,39.8,1.7,39.7,1.7z"/>
	</g>
</g>
<path class="st2" d="M54.4,12.2h-0.6c0,0-0.6,0-0.6-0.6v-1.5c0-0.2-0.1-0.3-0.3-0.3c-0.2,0-0.3,0.1-0.3,0.3l0,2.5
	c0,0.4-1.2,1.3-4,1.3c-2.8,0-4-0.9-4-1.3l0-2.5c0-0.2-0.1-0.3-0.3-0.3c-0.2,0-0.3,0.1-0.3,0.3v1.5c0,0.6-0.6,0.6-0.6,0.6h-0.6
	c0,0-0.6,0-0.6-0.6V9.2c0-1.7,1.8-3.2,4.3-3.7c0,0,0.8,0.6,2.2,0.6s2.2-0.6,2.2-0.6C53.2,6,55,7.5,55,9.2v2.5
	C55,12.2,54.4,12.2,54.4,12.2z M48.5,5.3c-1.5,0-2.8-1.2-2.8-2.6c0-1.4,1.2-2.6,2.8-2.6c1.5,0,2.8,1.2,2.8,2.6
	C51.3,4.1,50,5.3,48.5,5.3z"/>
</svg>
