<?xml version="1.0" encoding="utf-8"?>
<!-- Generator: Adobe Illustrator 16.0.0, SVG Export Plug-In . SVG Version: 6.00 Build 0)  -->
<!DOCTYPE svg PUBLIC "-//W3C//DTD SVG 1.1//EN" "http://www.w3.org/Graphics/SVG/1.1/DTD/svg11.dtd">
<svg version="1.1" id="Laag_1" xmlns="http://www.w3.org/2000/svg" xmlns:xlink="http://www.w3.org/1999/xlink" x="0px" y="0px"
	 width="158px" height="42px" viewBox="0 0 158 42" style="enable-background:new 0 0 158 42;" xml:space="preserve">
<style type="text/css">
<![CDATA[
	.st0{clip-path:url(#SVGID_6_);fill:#FFFFFF;}
	.st1{fill:#11458C;}
	.st2{fill:#E20613;}
	.st3{fill:#E87800;}
	.st4{clip-path:url(#SVGID_8_);fill:#FFFFFF;}
	.st5{fill:#555150;}
	.st6{fill:#FFFFFF;}
	.st7{clip-path:url(#SVGID_2_);fill:#FFFFFF;}
	.st8{fill:#009EE2;}
	.st9{clip-path:url(#SVGID_4_);fill:#FFFFFF;}
]]>
</style>
<g>
	<circle class="st1" cx="20.2" cy="21.2" r="19.2"/>
	<path id="Facebook_1_" class="st6" d="M16.9,14.2c0,0.6,0,3.4,0,3.4h-2.5v4.1h2.5v11.3h5V21.6h3.4c0,0,0.3-2,0.5-4.1
		c-0.4,0-3.8,0-3.8,0s0-2.4,0-2.8c0-0.4,0.6-1,1.1-1c0.5,0,1.7,0,2.8,0c0-0.6,0-2.5,0-4.3c-1.4,0-3,0-3.7,0
		C16.8,9.5,16.9,13.6,16.9,14.2z"/>
</g>
<g>
	<circle class="st8" cx="59.3" cy="21.2" r="19.2"/>
	<path class="st6" d="M71.9,14c-0.9,0.4-1.9,0.7-2.9,0.8c1-0.6,1.8-1.6,2.2-2.8c-1,0.6-2.1,1-3.2,1.2c-0.9-1-2.2-1.6-3.7-1.6
		c-2.8,0-5.1,2.3-5.1,5.1c0,0.4,0,0.8,0.1,1.2c-4.2-0.2-7.9-2.2-10.4-5.3c-0.4,0.7-0.7,1.6-0.7,2.5c0,1.8,0.9,3.3,2.3,4.2
		c-0.8,0-1.6-0.3-2.3-0.6c0,0,0,0,0,0.1c0,2.5,1.7,4.5,4.1,5c-0.4,0.1-0.9,0.2-1.3,0.2c-0.3,0-0.6,0-1-0.1c0.6,2,2.5,3.5,4.7,3.5
		c-1.7,1.4-3.9,2.2-6.3,2.2c-0.4,0-0.8,0-1.2-0.1c2.2,1.4,4.9,2.3,7.8,2.3c9.3,0,14.4-7.7,14.4-14.4c0-0.2,0-0.4,0-0.7
		C70.3,15.9,71.2,15,71.9,14z"/>
</g>
<g>
	<circle class="st2" cx="98.6" cy="21.2" r="19.2"/>
	<g>
		<defs>
			<path id="SVGID_1_" d="M98.7,19.8c-0.1,0-0.3,0-0.4,0c-2.7,0-5.4,0.1-8,0.2c-1.9,0-3.5,1.5-3.5,3.5c-0.1,1.5-0.2,3-0.2,4.5
				c0,1.5,0,3,0.2,4.5c0,1.9,1.6,3.5,3.5,3.5c2.8,0.1,5.6,0.2,8.4,0.2c2.9,0,5.7,0,8.4-0.2c1.9,0,3.5-1.5,3.5-3.5
				c0.1-1.5,0.2-3,0.2-4.5c0-1.5,0-3-0.2-4.5c0-1.9-1.6-3.5-3.5-3.5c-2.6-0.1-5.3-0.2-8-0.2C99,19.8,98.9,19.8,98.7,19.8"/>
		</defs>
		<use xlink:href="#SVGID_1_"  style="overflow:visible;fill:#FFFFFF;"/>
		<clipPath id="SVGID_2_">
			<use xlink:href="#SVGID_1_"  style="overflow:visible;"/>
		</clipPath>
		<rect x="86.6" y="19.8" class="st7" width="24.2" height="16.3"/>
	</g>
	<g>
		<defs>
			<polygon id="SVGID_3_" points="94.2,7.1 93.2,11.4 93.1,11.4 92,7.1 90.3,7.1 92.3,13.6 92.3,17.8 93.9,17.8 93.9,13.4 95.9,7.1 
							"/>
		</defs>
		<use xlink:href="#SVGID_3_"  style="overflow:visible;fill:#FFFFFF;"/>
		<clipPath id="SVGID_4_">
			<use xlink:href="#SVGID_3_"  style="overflow:visible;"/>
		</clipPath>
		<rect x="90.3" y="7.1" class="st9" width="5.5" height="10.7"/>
	</g>
	<g>
		<defs>
			<path id="SVGID_5_" d="M97.5,16.5c-0.1-0.1-0.2-0.3-0.2-0.5v-4.3c0-0.2,0.1-0.3,0.2-0.4c0.1-0.1,0.3-0.2,0.4-0.2
				c0.2,0,0.3,0.1,0.5,0.2c0.1,0.1,0.2,0.2,0.2,0.4V16c0,0.2-0.1,0.4-0.2,0.5c-0.1,0.1-0.3,0.2-0.5,0.2
				C97.7,16.6,97.6,16.6,97.5,16.5 M96.4,10.3c-0.4,0.4-0.6,0.9-0.6,1.5l0,4.1c0,0.7,0.2,1.2,0.6,1.6c0.4,0.4,0.9,0.6,1.5,0.6
				c0.7,0,1.2-0.2,1.6-0.6c0.4-0.4,0.6-0.9,0.6-1.6v-4.1c0-0.6-0.2-1.1-0.6-1.5c-0.4-0.4-0.9-0.6-1.5-0.6
				C97.3,9.7,96.8,9.9,96.4,10.3"/>
		</defs>
		<use xlink:href="#SVGID_5_"  style="overflow:visible;fill:#FFFFFF;"/>
		<clipPath id="SVGID_6_">
			<use xlink:href="#SVGID_5_"  style="overflow:visible;"/>
		</clipPath>
		<rect x="95.8" y="9.7" class="st0" width="4.3" height="8.3"/>
	</g>
	<g>
		<defs>
			<path id="SVGID_7_" d="M104,9.9v6c-0.1,0.2-0.3,0.3-0.5,0.4c-0.2,0.1-0.3,0.2-0.4,0.2c-0.1,0-0.2,0-0.3-0.1
				c-0.1-0.1-0.1-0.2-0.1-0.4V9.9h-1.5v6.6c0,0.5,0.1,0.8,0.3,1.1c0.2,0.2,0.4,0.4,0.8,0.4c0.3,0,0.6-0.1,0.9-0.3
				c0.3-0.2,0.6-0.4,0.8-0.7v0.9h1.5V9.9H104z"/>
		</defs>
		<use xlink:href="#SVGID_7_"  style="overflow:visible;fill:#FFFFFF;"/>
		<clipPath id="SVGID_8_">
			<use xlink:href="#SVGID_7_"  style="overflow:visible;"/>
		</clipPath>
		<rect x="101.3" y="9.9" class="st4" width="4.2" height="8"/>
	</g>
	<path class="st5" d="M93.6,22.5h-5.1V24h1.7v9.2h1.7V24h1.7V22.5z M96.3,31.3c-0.1,0.2-0.3,0.3-0.5,0.4c-0.2,0.1-0.3,0.2-0.4,0.2
		c-0.1,0-0.2,0-0.3-0.1c-0.1-0.1-0.1-0.2-0.1-0.4v-6.1h-1.5v6.6c0,0.5,0.1,0.8,0.3,1.1c0.2,0.2,0.4,0.4,0.8,0.4
		c0.3,0,0.6-0.1,0.9-0.3c0.3-0.2,0.6-0.4,0.8-0.7v0.9h1.5v-7.9h-1.5V31.3z M102,25.2c-0.2,0-0.5,0.1-0.7,0.2
		c-0.2,0.1-0.4,0.3-0.6,0.5v-3.4h-1.5v10.7h1.5v-0.6c0.2,0.2,0.4,0.4,0.6,0.5c0.2,0.1,0.5,0.2,0.8,0.2c0.4,0,0.8-0.1,1-0.4
		c0.2-0.3,0.3-0.7,0.3-1.3v-4.4c0-0.6-0.1-1.1-0.4-1.5C102.8,25.4,102.4,25.2,102,25.2 M101.9,31.3c0,0.3,0,0.4-0.1,0.5
		c-0.1,0.1-0.2,0.2-0.4,0.2c-0.1,0-0.2,0-0.4-0.1c-0.1-0.1-0.2-0.1-0.3-0.3v-4.9c0.1-0.1,0.2-0.2,0.3-0.2c0.1-0.1,0.2-0.1,0.3-0.1
		c0.2,0,0.3,0.1,0.5,0.2c0.1,0.1,0.2,0.3,0.2,0.6V31.3z M108.8,29.4v-2c0-0.8-0.2-1.3-0.5-1.7s-0.9-0.6-1.5-0.6
		c-0.7,0-1.2,0.2-1.6,0.6c-0.4,0.4-0.6,1-0.6,1.7V31c0,0.8,0.2,1.4,0.6,1.8c0.4,0.4,0.9,0.7,1.6,0.7c0.7,0,1.3-0.2,1.6-0.6
		c0.4-0.4,0.6-1,0.6-1.8v-0.6h-1.5v0.5c0,0.5,0,0.8-0.1,0.9c-0.1,0.1-0.3,0.2-0.5,0.2c-0.2,0-0.4-0.1-0.5-0.2
		c-0.1-0.2-0.1-0.4-0.1-0.9v-1.5H108.8z M106,27.4c0-0.3,0.1-0.6,0.2-0.7c0.1-0.1,0.3-0.2,0.5-0.2c0.2,0,0.4,0.1,0.5,0.2
		c0.1,0.1,0.2,0.4,0.2,0.7v0.8H106V27.4z"/>
</g>
<g>
	<circle class="st3" cx="137.7" cy="21.2" r="19.2"/>
	<polygon class="st6" points="146.7,15.5 146.7,12.1 145.2,12.1 145.2,15.5 141.9,15.5 141.9,16.9 145.2,16.9 145.2,20.3 
		146.7,20.3 146.7,16.9 150,16.9 150,15.5 	"/>
	<path class="st6" d="M140.6,25.3c-0.2-0.3-0.5-0.6-0.7-0.8c-0.3-0.3-0.6-0.5-0.9-0.8l-1-0.8c-0.1-0.1-0.3-0.3-0.5-0.4
		s-0.2-0.4-0.2-0.7s0.1-0.6,0.2-0.8c0.2-0.2,0.3-0.4,0.5-0.6c0.3-0.2,0.6-0.4,0.8-0.7c0.3-0.2,0.5-0.5,0.7-0.8
		c0.2-0.3,0.4-0.6,0.5-1c0.1-0.4,0.2-0.8,0.2-1.3c0-0.5-0.1-1-0.2-1.4c-0.1-0.4-0.3-0.7-0.5-1c-0.2-0.3-0.4-0.5-0.6-0.8
		c-0.2-0.2-0.4-0.4-0.6-0.5h1.7l1.7-0.9h-5.6c-0.7,0-1.5,0.1-2.4,0.3s-1.7,0.6-2.4,1.2c-0.6,0.5-1,1.1-1.3,1.7
		c-0.3,0.6-0.4,1.3-0.4,1.9c0,0.5,0.1,1,0.3,1.6c0.2,0.5,0.5,1,0.9,1.4c0.4,0.4,0.8,0.7,1.4,1c0.6,0.2,1.2,0.4,1.9,0.4
		c0.1,0,0.3,0,0.4,0c0.1,0,0.3,0,0.4,0c-0.1,0.2-0.1,0.3-0.2,0.5c-0.1,0.2-0.1,0.3-0.1,0.6c0,0.4,0.1,0.8,0.3,1
		c0.2,0.3,0.4,0.5,0.6,0.8c-0.3,0-0.7,0-1.1,0.1c-0.4,0-0.9,0.1-1.3,0.2c-0.5,0.1-0.9,0.2-1.4,0.4c-0.5,0.2-0.9,0.4-1.3,0.6
		c-0.8,0.5-1.3,1-1.6,1.6c-0.3,0.6-0.4,1.2-0.4,1.7c0,0.5,0.1,1,0.3,1.4c0.2,0.5,0.6,0.9,1.1,1.2c0.5,0.4,1.1,0.6,1.8,0.9
		s1.6,0.3,2.5,0.3c1.2,0,2.2-0.1,3.1-0.4c0.9-0.3,1.6-0.7,2.2-1.2c0.6-0.5,1-1,1.3-1.6c0.3-0.6,0.5-1.2,0.5-1.9
		c0-0.5-0.1-0.9-0.2-1.2C141,25.9,140.8,25.6,140.6,25.3z M135.5,20.7c-0.6,0-1.1-0.2-1.5-0.5c-0.4-0.3-0.8-0.7-1.1-1.2
		c-0.3-0.5-0.5-1-0.6-1.6c-0.1-0.6-0.2-1.1-0.2-1.5c0-0.4,0-0.7,0.1-1.1c0.1-0.3,0.2-0.7,0.5-0.9c0.2-0.3,0.5-0.5,0.8-0.6
		c0.3-0.2,0.7-0.2,1.1-0.2c0.6,0,1,0.2,1.5,0.5c0.4,0.3,0.8,0.8,1.1,1.3c0.3,0.5,0.5,1,0.6,1.6c0.1,0.6,0.2,1.1,0.2,1.6
		c0,0.3,0,0.6-0.1,0.9c-0.1,0.4-0.3,0.7-0.6,1c-0.2,0.2-0.5,0.4-0.8,0.5C136.2,20.6,135.8,20.7,135.5,20.7z M138.5,30.7
		c-0.7,0.5-1.7,0.8-3,0.8c-1.5,0-2.6-0.3-3.5-0.9c-0.9-0.6-1.3-1.4-1.3-2.4c0-0.5,0.1-0.9,0.3-1.2s0.4-0.6,0.7-0.8
		c0.3-0.2,0.5-0.4,0.8-0.5c0.3-0.1,0.5-0.2,0.6-0.3c0.3-0.1,0.6-0.2,0.9-0.2c0.3-0.1,0.6-0.1,0.9-0.1c0.3,0,0.5,0,0.7-0.1
		c0.2,0,0.3,0,0.4,0c0.1,0,0.3,0,0.3,0c0.1,0,0.2,0,0.3,0c0.5,0.4,0.9,0.7,1.3,1c0.4,0.3,0.7,0.6,0.9,0.8c0.2,0.3,0.4,0.5,0.5,0.8
		c0.1,0.3,0.2,0.6,0.2,0.9C139.5,29.5,139.1,30.1,138.5,30.7z"/>
</g>
</svg>
