<?xml version="1.0" encoding="utf-8"?>
<!-- Generator: Adobe Illustrator 16.0.0, SVG Export Plug-In . SVG Version: 6.00 Build 0)  -->
<!DOCTYPE svg PUBLIC "-//W3C//DTD SVG 1.1//EN" "http://www.w3.org/Graphics/SVG/1.1/DTD/svg11.dtd">
<svg version="1.1" id="Laag_1" xmlns="http://www.w3.org/2000/svg" xmlns:xlink="http://www.w3.org/1999/xlink" x="0px" y="0px"
	 width="129px" height="32.5px" viewBox="0 0 129 32.5" enable-background="new 0 0 129 32.5" xml:space="preserve">
<g>
	<circle fill="#11458C" cx="15.7" cy="15.7" r="15.7"/>
	<path id="Facebook_1_" fill="#FFFFFF" d="M13.001,9.976c0,0.49,0,2.781,0,2.781h-2.044v3.353h2.044v9.239h4.088v-9.322h2.78
		c0,0,0.246-1.634,0.409-3.352c-0.327,0-3.107,0-3.107,0s0-1.962,0-2.289c0-0.328,0.491-0.818,0.899-0.818c0.409,0,1.39,0,2.29,0
		c0-0.491,0-2.044,0-3.517c-1.145,0-2.453,0-3.025,0C12.919,6.133,13.001,9.485,13.001,9.976z"/>
</g>
<g>
	<circle fill="#009EE2" cx="47.8" cy="15.7" r="15.7"/>
	<path fill="#FFFFFF" d="M58.103,9.813c-0.736,0.327-1.553,0.572-2.371,0.654c0.818-0.49,1.472-1.309,1.799-2.29
		c-0.818,0.491-1.717,0.818-2.617,0.981c-0.736-0.817-1.799-1.308-3.025-1.308c-2.29,0-4.17,1.881-4.17,4.17
		c0,0.327,0,0.654,0.081,0.981c-3.434-0.164-6.459-1.798-8.504-4.334c-0.327,0.573-0.572,1.309-0.572,2.045
		c0,1.472,0.736,2.698,1.881,3.434c-0.654,0-1.309-0.245-1.881-0.49c0,0,0,0,0,0.081c0,2.044,1.39,3.68,3.353,4.089
		c-0.328,0.082-0.736,0.163-1.063,0.163c-0.245,0-0.491,0-0.817-0.081c0.491,1.635,2.044,2.862,3.844,2.862
		c-1.391,1.145-3.189,1.798-5.152,1.798c-0.328,0-0.654,0-0.981-0.082c1.798,1.146,4.006,1.882,6.378,1.882
		c7.604,0,11.775-6.297,11.775-11.776c0-0.163,0-0.327,0-0.572C56.795,11.366,57.531,10.63,58.103,9.813z"/>
</g>
<g>
	<circle fill="#E20613" cx="80.1" cy="15.7" r="15.7"/>
	<g>
		<g>
			<path id="SVGID_1_" fill="#FFFFFF" d="M80.183,14.555c-0.083,0-0.245,0-0.328,0c-2.208,0-4.415,0.083-6.542,0.164
				c-1.553,0-2.862,1.227-2.862,2.862c-0.081,1.227-0.164,2.453-0.164,3.68c0,1.226,0,2.452,0.164,3.679
				c0,1.555,1.309,2.863,2.862,2.863c2.289,0.08,4.58,0.163,6.87,0.163c2.37,0,4.661,0,6.868-0.163c1.553,0,2.861-1.227,2.861-2.863
				c0.083-1.227,0.163-2.453,0.163-3.679c0-1.227,0-2.453-0.163-3.68c0-1.555-1.309-2.862-2.861-2.862
				c-2.127-0.082-4.335-0.164-6.543-0.164C80.428,14.555,80.346,14.555,80.183,14.555"/>
		</g>
		<g>
			<defs>
				<path id="SVGID_2_" d="M80.183,14.555c-0.083,0-0.245,0-0.328,0c-2.208,0-4.415,0.083-6.542,0.164
					c-1.553,0-2.862,1.227-2.862,2.862c-0.081,1.227-0.164,2.453-0.164,3.68c0,1.226,0,2.452,0.164,3.679
					c0,1.555,1.309,2.863,2.862,2.863c2.289,0.08,4.58,0.163,6.87,0.163c2.37,0,4.661,0,6.868-0.163
					c1.553,0,2.861-1.227,2.861-2.863c0.083-1.227,0.163-2.453,0.163-3.679c0-1.227,0-2.453-0.163-3.68
					c0-1.555-1.309-2.862-2.861-2.862c-2.127-0.082-4.335-0.164-6.543-0.164C80.428,14.555,80.346,14.555,80.183,14.555"/>
			</defs>
			<clipPath id="SVGID_4_">
				<use xlink:href="#SVGID_2_"  overflow="visible"/>
			</clipPath>
			<rect x="70.287" y="14.555" clip-path="url(#SVGID_4_)" fill="#FFFFFF" width="19.788" height="13.328"/>
		</g>
	</g>
	<g>
		<g>
			<polygon id="SVGID_3_" fill="#FFFFFF" points="76.502,4.17 75.685,7.686 75.602,7.686 74.703,4.17 73.313,4.17 74.948,9.486 
				74.948,12.92 76.257,12.92 76.257,9.322 77.893,4.17 			"/>
		</g>
		<g>
			<defs>
				<polygon id="SVGID_6_" points="76.502,4.17 75.685,7.686 75.602,7.686 74.703,4.17 73.313,4.17 74.948,9.486 74.948,12.92 
					76.257,12.92 76.257,9.322 77.893,4.17 				"/>
			</defs>
			<clipPath id="SVGID_8_">
				<use xlink:href="#SVGID_6_"  overflow="visible"/>
			</clipPath>
			<rect x="73.313" y="4.17" clip-path="url(#SVGID_8_)" fill="#FFFFFF" width="4.497" height="8.75"/>
		</g>
	</g>
	<g>
		<g>
			<path id="SVGID_5_" fill="#FFFFFF" d="M79.201,11.856c-0.082-0.082-0.164-0.245-0.164-0.408V7.932
				c0-0.163,0.083-0.246,0.164-0.327c0.081-0.081,0.245-0.164,0.327-0.164c0.164,0,0.245,0.083,0.41,0.164
				c0.08,0.082,0.162,0.164,0.162,0.327v3.517c0,0.163-0.082,0.327-0.162,0.408c-0.083,0.083-0.246,0.164-0.41,0.164
				C79.364,11.939,79.282,11.939,79.201,11.856 M78.301,6.787c-0.327,0.327-0.491,0.736-0.491,1.227v3.352
				c0,0.573,0.164,0.981,0.491,1.309c0.327,0.327,0.735,0.491,1.226,0.491c0.572,0,0.98-0.164,1.309-0.491
				c0.328-0.328,0.49-0.736,0.49-1.309V8.014c0-0.49-0.162-0.899-0.49-1.227c-0.328-0.328-0.736-0.49-1.227-0.49
				C79.037,6.297,78.628,6.459,78.301,6.787"/>
		</g>
		<g>
			<defs>
				<path id="SVGID_9_" d="M79.201,11.856c-0.082-0.082-0.164-0.245-0.164-0.408V7.932c0-0.163,0.083-0.246,0.164-0.327
					c0.081-0.081,0.245-0.164,0.327-0.164c0.164,0,0.245,0.083,0.41,0.164c0.08,0.082,0.162,0.164,0.162,0.327v3.517
					c0,0.163-0.082,0.327-0.162,0.408c-0.083,0.083-0.246,0.164-0.41,0.164C79.364,11.939,79.282,11.939,79.201,11.856
					 M78.301,6.787c-0.327,0.327-0.491,0.736-0.491,1.227v3.352c0,0.573,0.164,0.981,0.491,1.309
					c0.327,0.327,0.735,0.491,1.226,0.491c0.572,0,0.98-0.164,1.309-0.491c0.328-0.328,0.49-0.736,0.49-1.309V8.014
					c0-0.49-0.162-0.899-0.49-1.227c-0.328-0.328-0.736-0.49-1.227-0.49C79.037,6.297,78.628,6.459,78.301,6.787"/>
			</defs>
			<clipPath id="SVGID_10_">
				<use xlink:href="#SVGID_9_"  overflow="visible"/>
			</clipPath>
			<rect x="77.81" y="6.297" clip-path="url(#SVGID_10_)" fill="#FFFFFF" width="3.516" height="6.786"/>
		</g>
	</g>
	<g>
		<g>
			<path id="SVGID_7_" fill="#FFFFFF" d="M84.516,6.459v4.906c-0.082,0.164-0.245,0.246-0.408,0.328
				c-0.165,0.082-0.245,0.163-0.328,0.163c-0.082,0-0.162,0-0.245-0.082c-0.082-0.082-0.082-0.164-0.082-0.327V6.459h-1.227v5.397
				c0,0.409,0.082,0.654,0.245,0.9c0.165,0.164,0.328,0.327,0.655,0.327c0.245,0,0.491-0.082,0.736-0.245
				c0.245-0.163,0.49-0.327,0.653-0.572v0.736h1.227V6.459H84.516z"/>
		</g>
		<g>
			<defs>
				<path id="SVGID_11_" d="M84.516,6.459v4.906c-0.082,0.164-0.245,0.246-0.408,0.328c-0.165,0.082-0.245,0.163-0.328,0.163
					c-0.082,0-0.162,0-0.245-0.082c-0.082-0.082-0.082-0.164-0.082-0.327V6.459h-1.227v5.397c0,0.409,0.082,0.654,0.245,0.9
					c0.165,0.164,0.328,0.327,0.655,0.327c0.245,0,0.491-0.082,0.736-0.245c0.245-0.163,0.49-0.327,0.653-0.572v0.736h1.227V6.459
					H84.516z"/>
			</defs>
			<clipPath id="SVGID_12_">
				<use xlink:href="#SVGID_11_"  overflow="visible"/>
			</clipPath>
			<rect x="82.308" y="6.459" clip-path="url(#SVGID_12_)" fill="#FFFFFF" width="3.435" height="6.542"/>
		</g>
	</g>
	<path fill="#555150" d="M76.011,16.763h-4.17v1.227h1.39v7.523h1.39v-7.523h1.39V16.763L76.011,16.763z M78.219,23.958
		c-0.082,0.165-0.245,0.245-0.409,0.328c-0.164,0.082-0.245,0.163-0.326,0.163c-0.083,0-0.164,0-0.246-0.081
		c-0.082-0.082-0.082-0.165-0.082-0.327v-4.988H75.93v5.396c0,0.41,0.082,0.655,0.245,0.9c0.164,0.163,0.328,0.326,0.654,0.326
		c0.246,0,0.491-0.081,0.736-0.246c0.245-0.162,0.49-0.325,0.654-0.57v0.735h1.227v-6.46h-1.227V23.958L78.219,23.958z
		 M82.881,18.971c-0.165,0-0.41,0.082-0.573,0.164c-0.163,0.081-0.327,0.245-0.49,0.409v-2.781h-1.227v8.75h1.227v-0.491
		c0.163,0.163,0.327,0.328,0.49,0.408c0.163,0.083,0.408,0.165,0.653,0.165c0.328,0,0.656-0.082,0.818-0.327
		c0.163-0.246,0.246-0.573,0.246-1.064v-3.597c0-0.491-0.083-0.9-0.328-1.227C83.534,19.135,83.207,18.971,82.881,18.971
		 M82.799,23.958c0,0.245,0,0.328-0.083,0.41c-0.08,0.081-0.163,0.163-0.325,0.163c-0.083,0-0.165,0-0.328-0.082
		c-0.082-0.081-0.163-0.081-0.245-0.246v-4.006c0.082-0.082,0.163-0.163,0.245-0.163c0.082-0.082,0.163-0.082,0.245-0.082
		c0.163,0,0.245,0.082,0.408,0.163c0.083,0.082,0.165,0.246,0.165,0.491v3.352H82.799z M88.44,22.406V20.77
		c0-0.655-0.163-1.064-0.408-1.39c-0.245-0.327-0.735-0.491-1.227-0.491c-0.573,0-0.981,0.164-1.309,0.491
		c-0.328,0.326-0.491,0.817-0.491,1.39v2.943c0,0.655,0.163,1.146,0.491,1.472c0.327,0.328,0.735,0.573,1.309,0.573
		c0.571,0,1.062-0.163,1.308-0.49c0.327-0.328,0.49-0.818,0.49-1.473v-0.49h-1.227v0.408c0,0.41,0,0.655-0.08,0.736
		c-0.083,0.082-0.246,0.164-0.41,0.164c-0.163,0-0.326-0.082-0.408-0.164c-0.083-0.163-0.083-0.326-0.083-0.736v-1.227h2.045V22.406
		z M86.15,20.77c0-0.246,0.082-0.491,0.165-0.573c0.08-0.082,0.245-0.163,0.408-0.163s0.327,0.081,0.408,0.163
		c0.082,0.082,0.165,0.327,0.165,0.573v0.654H86.15V20.77z"/>
</g>
<g>
	<circle fill="#E87800" cx="112.2" cy="15.7" r="15.7"/>
	<polygon fill="#FFFFFF" points="119.56,11.039 119.56,8.259 118.333,8.259 118.333,11.039 115.635,11.039 115.635,12.184 
		118.333,12.184 118.333,14.964 119.56,14.964 119.56,12.184 122.258,12.184 122.258,11.039 	"/>
	<path fill="#FFFFFF" d="M114.571,19.052c-0.163-0.245-0.409-0.49-0.572-0.654c-0.246-0.245-0.491-0.409-0.736-0.654l-0.817-0.654
		c-0.081-0.082-0.245-0.246-0.409-0.327c-0.163-0.082-0.163-0.328-0.163-0.573s0.082-0.49,0.163-0.654
		c0.164-0.164,0.245-0.327,0.409-0.491c0.245-0.164,0.49-0.327,0.654-0.572c0.245-0.164,0.408-0.409,0.572-0.654
		c0.164-0.245,0.327-0.491,0.409-0.818c0.081-0.327,0.163-0.654,0.163-1.063c0-0.409-0.082-0.817-0.163-1.145
		c-0.082-0.328-0.245-0.573-0.409-0.818c-0.164-0.246-0.327-0.409-0.49-0.654c-0.164-0.163-0.327-0.327-0.491-0.409h1.391
		l1.39-0.736h-4.579c-0.572,0-1.227,0.082-1.962,0.245c-0.736,0.164-1.391,0.491-1.963,0.981c-0.49,0.409-0.818,0.899-1.063,1.39
		c-0.245,0.49-0.327,1.063-0.327,1.554c0,0.409,0.082,0.817,0.246,1.308c0.163,0.409,0.409,0.818,0.735,1.145
		c0.327,0.327,0.654,0.572,1.146,0.817c0.49,0.164,0.981,0.327,1.553,0.327c0.082,0,0.246,0,0.327,0c0.082,0,0.245,0,0.328,0
		c-0.083,0.164-0.083,0.245-0.164,0.409c-0.082,0.164-0.082,0.245-0.082,0.491c0,0.327,0.082,0.655,0.246,0.817
		c0.162,0.246,0.326,0.409,0.49,0.655c-0.245,0-0.573,0-0.899,0.082c-0.327,0-0.736,0.082-1.063,0.164
		c-0.409,0.082-0.735,0.164-1.145,0.327c-0.409,0.164-0.736,0.328-1.063,0.491c-0.655,0.409-1.064,0.818-1.31,1.308
		c-0.245,0.491-0.326,0.981-0.326,1.39s0.081,0.817,0.245,1.146c0.164,0.408,0.49,0.735,0.899,0.98
		c0.408,0.327,0.899,0.491,1.472,0.736s1.309,0.245,2.044,0.245c0.981,0,1.799-0.082,2.535-0.327c0.735-0.246,1.309-0.572,1.8-0.981
		c0.49-0.408,0.817-0.817,1.063-1.309c0.245-0.49,0.409-0.98,0.409-1.553c0-0.409-0.083-0.736-0.164-0.981
		C114.898,19.543,114.734,19.298,114.571,19.052z M110.401,15.292c-0.49,0-0.899-0.164-1.227-0.409
		c-0.328-0.246-0.654-0.572-0.899-0.981c-0.246-0.409-0.409-0.817-0.491-1.308c-0.081-0.491-0.164-0.9-0.164-1.227
		c0-0.327,0-0.572,0.083-0.9c0.081-0.245,0.163-0.572,0.408-0.736c0.164-0.245,0.409-0.409,0.654-0.491
		c0.245-0.163,0.572-0.163,0.899-0.163c0.491,0,0.817,0.163,1.227,0.409c0.327,0.245,0.654,0.654,0.899,1.063
		s0.409,0.818,0.49,1.309c0.083,0.491,0.164,0.899,0.164,1.308c0,0.245,0,0.491-0.081,0.736c-0.083,0.327-0.246,0.573-0.491,0.818
		c-0.164,0.164-0.409,0.327-0.654,0.409C110.974,15.209,110.646,15.292,110.401,15.292z M112.854,23.469
		c-0.573,0.408-1.391,0.653-2.453,0.653c-1.227,0-2.126-0.245-2.862-0.736c-0.736-0.49-1.063-1.144-1.063-1.961
		c0-0.409,0.081-0.736,0.245-0.981c0.163-0.245,0.327-0.49,0.572-0.654c0.245-0.164,0.409-0.327,0.654-0.409
		c0.245-0.082,0.408-0.164,0.49-0.245c0.246-0.083,0.491-0.164,0.736-0.164c0.245-0.083,0.49-0.083,0.736-0.083
		c0.245,0,0.408,0,0.571-0.082c0.164,0,0.246,0,0.327,0c0.082,0,0.245,0,0.245,0c0.083,0,0.164,0,0.245,0
		c0.409,0.328,0.736,0.573,1.064,0.818c0.326,0.245,0.571,0.49,0.735,0.654c0.163,0.246,0.327,0.409,0.408,0.654
		c0.083,0.246,0.164,0.491,0.164,0.736C113.672,22.487,113.345,22.978,112.854,23.469z"/>
</g>
</svg>
